<?xml version="1.0" encoding="UTF-8"?><svg id="Stacked_Logo" xmlns="http://www.w3.org/2000/svg" viewBox="0 0 1922 2157.759"><path id="SHIELD" d="M1921,1554.349V420.288c0-231.191-186.725-418.608-417.063-418.608H418.063c-230.337,0-417.063,187.417-417.063,418.608v1136.864c0,180.15,114.832,340.095,285.094,397.099l546.349,182.916c74.274,24.867,154.527,25.22,229.015,1.01l570.966-185.58c172.039-55.917,288.575-216.743,288.575-398.247Z" fill="#eaffaa"/><g id="LOXA"><path d="M878.016,837.805v84.506c0,17.697-14.346,32.043-32.043,32.043h-365.491c-17.697,0-32.043-14.346-32.043-32.043v-498.782c0-17.697,14.346-32.043,32.043-32.043h91.277c17.697,0,32.043,14.346,32.043,32.043v350.19c0,17.697,14.346,32.043,32.043,32.043h210.128c17.697,0,32.043,14.346,32.043,32.043Z"/><path d="M935.649,672.921c0-167.727,131.701-297.183,297.22-297.183s298.324,129.457,298.324,297.183-132.842,297.22-298.324,297.22-297.22-129.493-297.22-297.22ZM1375.769,672.921c0-85.1-61.988-144.993-142.864-144.993-79.88,0-141.868,59.893-141.868,144.993s61.988,144.993,141.868,144.993c80.876,0,142.864-59.893,142.864-144.993Z"/><path d="M903.55,1620.968h-114.314c-10.37,0-20.098-5.018-26.109-13.468l-73.408-103.185c-12.746-17.916-39.337-17.966-52.15-.097l-74.128,103.379c-6.018,8.393-15.713,13.371-26.04,13.371h-114.495c-26.095,0-41.247-29.523-26.034-50.724l156.221-217.705c7.997-11.145,8.013-26.144.04-37.307l-148.012-207.201c-15.15-21.208.01-50.668,26.073-50.668h114.76c10.34,0,20.044,4.99,26.06,13.399l65.667,91.792c12.772,17.853,39.308,17.868,52.1.029l65.867-91.851c6.018-8.392,15.712-13.37,26.039-13.37h113.291c26.091,0,41.244,29.516,26.038,50.717l-147.798,206.072c-7.995,11.148-8.007,26.148-.029,37.309l156.427,218.829c15.159,21.207,0,50.676-26.067,50.676Z"/><path d="M1225.702,1042.577c-137.288,4.122-243.126,123.897-243.126,261.247v285.124c0,17.697,14.347,32.044,32.044,32.044h91.274c17.697,0,32.044-14.347,32.044-32.044v-61.983c0-17.697,14.347-32.044,32.044-32.044h126.877c17.697,0,32.044,14.347,32.044,32.044v61.983c0,17.697,14.347,32.044,32.044,32.044h91.274c17.697,0,32.044-14.347,32.044-32.044v-295.643c0-141.101-116.504-254.993-258.564-250.729ZM1137.939,1314.285v-22.304c0-49.945,35.935-95.458,85.631-100.434,57.154-5.724,105.334,39.005,105.334,94.988v27.751c0,17.697-14.347,32.044-32.044,32.044h-126.877c-17.697,0-32.044-14.347-32.044-32.044Z"/></g></svg>