<?xml version="1.0" encoding="UTF-8"?><svg id="Landscape_Logo" xmlns="http://www.w3.org/2000/svg" viewBox="0 0 4447 1922"><rect x=".968" y="1" width="4445.064" height="1920" rx="832.342" ry="832.342"/><path d="M1267.628,1201.679v123.037c0,25.765-20.887,46.652-46.652,46.652h-496.451c-25.765,0-46.652-20.887-46.652-46.652v-726.199c0-25.765,20.887-46.652,46.652-46.652h132.895c25.765,0,46.652,20.887,46.652,46.652v509.858c0,25.765,20.887,46.652,46.652,46.652h270.251c25.765,0,46.652,20.887,46.652,46.652Z" fill="#eaffaa"/><path d="M1310.032,961.616c0-244.201,191.75-432.682,432.736-432.682s434.343,188.482,434.343,432.682-193.411,432.736-434.343,432.736-432.736-188.535-432.736-432.736ZM1950.822,961.616c0-123.901-90.251-211.102-208.002-211.102-116.301,0-206.552,87.201-206.552,211.102s90.251,211.102,206.552,211.102c117.751,0,208.002-87.201,208.002-211.102Z" fill="#eaffaa"/><path d="M2923.636,1371.209h-166.434c-15.098,0-29.262-7.306-38.014-19.608l-106.879-150.232c-18.557-26.085-57.273-26.157-75.927-.141l-107.926,150.515c-8.762,12.22-22.877,19.467-37.913,19.467h-166.698c-37.992,0-60.053-42.984-37.903-73.851l227.449-316.966c11.644-16.226,11.667-38.065.058-54.316l-215.498-301.674c-22.057-30.877.015-73.77,37.962-73.77h167.084c15.054,0,29.183,7.265,37.943,19.508l95.608,133.644c18.595,25.993,57.23,26.015,75.854.043l95.898-133.729c8.762-12.219,22.876-19.465,37.912-19.465h164.946c37.987,0,60.049,42.973,37.91,73.842l-215.185,300.03c-11.641,16.23-11.658,38.071-.043,54.319l227.749,318.604c22.071,30.876,0,73.782-37.953,73.782Z" fill="#eaffaa"/><path d="M3392.672,529.102c-199.884,6.001-353.979,180.387-353.978,380.362v415.125c0,25.767,20.888,46.654,46.655,46.654h132.89c25.767,0,46.654-20.888,46.654-46.654v-90.244c0-25.767,20.888-46.654,46.654-46.654h184.725c25.767,0,46.654,20.888,46.654,46.654v90.244c0,25.767,20.888,46.654,46.654,46.654h132.89c25.767,0,46.654-20.888,46.654-46.654v-430.439c0-205.435-169.624-371.256-376.455-365.047ZM3264.893,924.695v-32.474c0-72.716,52.32-138.981,124.674-146.227,83.213-8.333,153.36,56.789,153.36,138.297v40.404c0,25.767-20.888,46.654-46.654,46.654h-184.726c-25.767,0-46.654-20.888-46.654-46.654Z" fill="#eaffaa"/></svg>